<svg xmlns="http://www.w3.org/2000/svg" width="1920" height="800" viewBox="0 0 1920 800">
  <defs>
    <linearGradient id="sky" x1="0" y1="0" x2="0" y2="1">
      <stop offset="0%" stop-color="#3d4654"/>
      <stop offset="55%" stop-color="#2d3748"/>
      <stop offset="100%" stop-color="#1a202c"/>
    </linearGradient>
    <radialGradient id="glow" cx="72%" cy="28%" r="45%">
      <stop offset="0%" stop-color="#b8956a" stop-opacity="0.18"/>
      <stop offset="100%" stop-color="#b8956a" stop-opacity="0"/>
    </radialGradient>
  </defs>
  <rect width="1920" height="800" fill="url(#sky)"/>
  <rect width="1920" height="800" fill="url(#glow)"/>
  <path fill="#5c6670" fill-opacity="0.12" d="M0 520 Q480 460 960 520 T1920 520 L1920 800 L0 800 Z"/>
  <path fill="#b8956a" fill-opacity="0.08" d="M0 580 Q640 520 1280 580 T1920 580 L1920 800 L0 800 Z"/>
  <!-- distant kingbird silhouette -->
  <g transform="translate(1480 180) scale(2.2)" opacity="0.15">
    <path fill="#e8ecf0" d="M0 40c20-5 35-20 45-40 5 15 15 25 30 30-10 5-20 5-30 0-5 10-15 15-25 15-10 0-15-2-20-5z"/>
    <path fill="#b8956a" d="M42 8l4 8 8 2-6 6 2 8-8-4-8 4 2-8-6-6 8-2z"/>
  </g>
</svg>
